<!--?xml version="1.0" standalone="no"?-->
              <svg id="sw-js-blob-svg" viewBox="0 0 100 100" xmlns="http://www.w3.org/2000/svg" version="1.1">
                    <defs> 
                        <linearGradient id="sw-gradient" x1="0" x2="1" y1="1" y2="0">
                            <stop id="stop1" stop-color="rgba(248, 117, 55, 1)" offset="0%"></stop>
                            <stop id="stop2" stop-color="rgba(187, 122, 3, 1)" offset="100%"></stop>
                        </linearGradient>
                    </defs>
                <path fill="url(#sw-gradient)" d="M16.5,-19.7C24.1,-17.2,34.8,-16,39,-10.8C43.2,-5.6,41,3.5,36.8,10.6C32.6,17.7,26.4,22.8,20,28.1C13.5,33.4,6.8,39,0.1,38.9C-6.6,38.8,-13.2,33,-16.7,26.7C-20.2,20.4,-20.6,13.6,-24.3,6.8C-27.9,0,-34.9,-6.8,-35.6,-13.8C-36.4,-20.8,-30.9,-27.9,-24,-30.5C-17,-33.2,-8.5,-31.2,-2,-28.5C4.5,-25.7,8.9,-22.1,16.5,-19.7Z" width="100%" height="100%" transform="translate(50 50)" stroke-width="0" style="transition: all 0.3s ease 0s;"></path>
              </svg>